<mxfile host="app.diagrams.net" modified="2023-03-14T17:31:18.843Z" agent="5.0 (Windows NT 10.0; Win64; x64) AppleWebKit/537.36 (KHTML, like Gecko) Chrome/110.0.0.0 Safari/537.36" etag="7S9YN2SyCMqelMwPrcip" version="21.0.6" type="github">
  <diagram id="R2lEEEUBdFMjLlhIrx00" name="Page-1">
    <mxGraphModel dx="703" dy="392" grid="1" gridSize="10" guides="1" tooltips="1" connect="1" arrows="1" fold="1" page="1" pageScale="1" pageWidth="850" pageHeight="1100" math="0" shadow="0" extFonts="Permanent Marker^https://fonts.googleapis.com/css?family=Permanent+Marker">
      <root>
        <mxCell id="0" />
        <mxCell id="1" parent="0" />
        <mxCell id="s8EIIu6BeSxh9JgCokm7-1" value="Person" style="shape=table;startSize=30;container=1;collapsible=1;childLayout=tableLayout;fixedRows=1;rowLines=0;fontStyle=1;align=center;resizeLast=1;html=1;" vertex="1" parent="1">
          <mxGeometry x="460" y="20" width="180" height="180" as="geometry">
            <mxRectangle x="60" y="50" width="80" height="30" as="alternateBounds" />
          </mxGeometry>
        </mxCell>
        <mxCell id="s8EIIu6BeSxh9JgCokm7-2" value="" style="shape=tableRow;horizontal=0;startSize=0;swimlaneHead=0;swimlaneBody=0;fillColor=none;collapsible=0;dropTarget=0;points=[[0,0.5],[1,0.5]];portConstraint=eastwest;top=0;left=0;right=0;bottom=1;" vertex="1" parent="s8EIIu6BeSxh9JgCokm7-1">
          <mxGeometry y="30" width="180" height="30" as="geometry" />
        </mxCell>
        <mxCell id="s8EIIu6BeSxh9JgCokm7-3" value="PK" style="shape=partialRectangle;connectable=0;fillColor=none;top=0;left=0;bottom=0;right=0;fontStyle=1;overflow=hidden;whiteSpace=wrap;html=1;" vertex="1" parent="s8EIIu6BeSxh9JgCokm7-2">
          <mxGeometry width="30" height="30" as="geometry">
            <mxRectangle width="30" height="30" as="alternateBounds" />
          </mxGeometry>
        </mxCell>
        <mxCell id="s8EIIu6BeSxh9JgCokm7-4" value="Personal ID" style="shape=partialRectangle;connectable=0;fillColor=none;top=0;left=0;bottom=0;right=0;align=left;spacingLeft=6;fontStyle=5;overflow=hidden;whiteSpace=wrap;html=1;" vertex="1" parent="s8EIIu6BeSxh9JgCokm7-2">
          <mxGeometry x="30" width="150" height="30" as="geometry">
            <mxRectangle width="150" height="30" as="alternateBounds" />
          </mxGeometry>
        </mxCell>
        <mxCell id="s8EIIu6BeSxh9JgCokm7-5" value="" style="shape=tableRow;horizontal=0;startSize=0;swimlaneHead=0;swimlaneBody=0;fillColor=none;collapsible=0;dropTarget=0;points=[[0,0.5],[1,0.5]];portConstraint=eastwest;top=0;left=0;right=0;bottom=0;" vertex="1" parent="s8EIIu6BeSxh9JgCokm7-1">
          <mxGeometry y="60" width="180" height="30" as="geometry" />
        </mxCell>
        <mxCell id="s8EIIu6BeSxh9JgCokm7-6" value="" style="shape=partialRectangle;connectable=0;fillColor=none;top=0;left=0;bottom=0;right=0;editable=1;overflow=hidden;whiteSpace=wrap;html=1;" vertex="1" parent="s8EIIu6BeSxh9JgCokm7-5">
          <mxGeometry width="30" height="30" as="geometry">
            <mxRectangle width="30" height="30" as="alternateBounds" />
          </mxGeometry>
        </mxCell>
        <mxCell id="s8EIIu6BeSxh9JgCokm7-7" value="Name" style="shape=partialRectangle;connectable=0;fillColor=none;top=0;left=0;bottom=0;right=0;align=left;spacingLeft=6;overflow=hidden;whiteSpace=wrap;html=1;" vertex="1" parent="s8EIIu6BeSxh9JgCokm7-5">
          <mxGeometry x="30" width="150" height="30" as="geometry">
            <mxRectangle width="150" height="30" as="alternateBounds" />
          </mxGeometry>
        </mxCell>
        <mxCell id="s8EIIu6BeSxh9JgCokm7-8" value="" style="shape=tableRow;horizontal=0;startSize=0;swimlaneHead=0;swimlaneBody=0;fillColor=none;collapsible=0;dropTarget=0;points=[[0,0.5],[1,0.5]];portConstraint=eastwest;top=0;left=0;right=0;bottom=0;" vertex="1" parent="s8EIIu6BeSxh9JgCokm7-1">
          <mxGeometry y="90" width="180" height="30" as="geometry" />
        </mxCell>
        <mxCell id="s8EIIu6BeSxh9JgCokm7-9" value="" style="shape=partialRectangle;connectable=0;fillColor=none;top=0;left=0;bottom=0;right=0;editable=1;overflow=hidden;whiteSpace=wrap;html=1;" vertex="1" parent="s8EIIu6BeSxh9JgCokm7-8">
          <mxGeometry width="30" height="30" as="geometry">
            <mxRectangle width="30" height="30" as="alternateBounds" />
          </mxGeometry>
        </mxCell>
        <mxCell id="s8EIIu6BeSxh9JgCokm7-10" value="Address" style="shape=partialRectangle;connectable=0;fillColor=none;top=0;left=0;bottom=0;right=0;align=left;spacingLeft=6;overflow=hidden;whiteSpace=wrap;html=1;" vertex="1" parent="s8EIIu6BeSxh9JgCokm7-8">
          <mxGeometry x="30" width="150" height="30" as="geometry">
            <mxRectangle width="150" height="30" as="alternateBounds" />
          </mxGeometry>
        </mxCell>
        <mxCell id="s8EIIu6BeSxh9JgCokm7-11" value="" style="shape=tableRow;horizontal=0;startSize=0;swimlaneHead=0;swimlaneBody=0;fillColor=none;collapsible=0;dropTarget=0;points=[[0,0.5],[1,0.5]];portConstraint=eastwest;top=0;left=0;right=0;bottom=0;" vertex="1" parent="s8EIIu6BeSxh9JgCokm7-1">
          <mxGeometry y="120" width="180" height="30" as="geometry" />
        </mxCell>
        <mxCell id="s8EIIu6BeSxh9JgCokm7-12" value="" style="shape=partialRectangle;connectable=0;fillColor=none;top=0;left=0;bottom=0;right=0;editable=1;overflow=hidden;whiteSpace=wrap;html=1;" vertex="1" parent="s8EIIu6BeSxh9JgCokm7-11">
          <mxGeometry width="30" height="30" as="geometry">
            <mxRectangle width="30" height="30" as="alternateBounds" />
          </mxGeometry>
        </mxCell>
        <mxCell id="s8EIIu6BeSxh9JgCokm7-13" value="DOB" style="shape=partialRectangle;connectable=0;fillColor=none;top=0;left=0;bottom=0;right=0;align=left;spacingLeft=6;overflow=hidden;whiteSpace=wrap;html=1;" vertex="1" parent="s8EIIu6BeSxh9JgCokm7-11">
          <mxGeometry x="30" width="150" height="30" as="geometry">
            <mxRectangle width="150" height="30" as="alternateBounds" />
          </mxGeometry>
        </mxCell>
        <mxCell id="s8EIIu6BeSxh9JgCokm7-20" value="" style="shape=tableRow;horizontal=0;startSize=0;swimlaneHead=0;swimlaneBody=0;fillColor=none;collapsible=0;dropTarget=0;points=[[0,0.5],[1,0.5]];portConstraint=eastwest;top=0;left=0;right=0;bottom=0;" vertex="1" parent="s8EIIu6BeSxh9JgCokm7-1">
          <mxGeometry y="150" width="180" height="30" as="geometry" />
        </mxCell>
        <mxCell id="s8EIIu6BeSxh9JgCokm7-21" value="" style="shape=partialRectangle;connectable=0;fillColor=none;top=0;left=0;bottom=0;right=0;editable=1;overflow=hidden;whiteSpace=wrap;html=1;" vertex="1" parent="s8EIIu6BeSxh9JgCokm7-20">
          <mxGeometry width="30" height="30" as="geometry">
            <mxRectangle width="30" height="30" as="alternateBounds" />
          </mxGeometry>
        </mxCell>
        <mxCell id="s8EIIu6BeSxh9JgCokm7-22" value="Contact" style="shape=partialRectangle;connectable=0;fillColor=none;top=0;left=0;bottom=0;right=0;align=left;spacingLeft=6;overflow=hidden;whiteSpace=wrap;html=1;" vertex="1" parent="s8EIIu6BeSxh9JgCokm7-20">
          <mxGeometry x="30" width="150" height="30" as="geometry">
            <mxRectangle width="150" height="30" as="alternateBounds" />
          </mxGeometry>
        </mxCell>
        <mxCell id="s8EIIu6BeSxh9JgCokm7-23" value="" style="triangle;whiteSpace=wrap;html=1;rotation=-90;" vertex="1" parent="1">
          <mxGeometry x="540" y="200" width="20" height="20" as="geometry" />
        </mxCell>
        <mxCell id="s8EIIu6BeSxh9JgCokm7-24" value="" style="endArrow=none;html=1;rounded=0;" edge="1" parent="1">
          <mxGeometry relative="1" as="geometry">
            <mxPoint x="549.5" y="220" as="sourcePoint" />
            <mxPoint x="550" y="280" as="targetPoint" />
          </mxGeometry>
        </mxCell>
        <mxCell id="s8EIIu6BeSxh9JgCokm7-25" value="" style="resizable=0;html=1;whiteSpace=wrap;align=right;verticalAlign=bottom;" connectable="0" vertex="1" parent="s8EIIu6BeSxh9JgCokm7-24">
          <mxGeometry x="1" relative="1" as="geometry" />
        </mxCell>
        <mxCell id="s8EIIu6BeSxh9JgCokm7-28" value="" style="line;strokeWidth=2;html=1;" vertex="1" parent="1">
          <mxGeometry x="270" y="276" width="520" height="10" as="geometry" />
        </mxCell>
        <mxCell id="s8EIIu6BeSxh9JgCokm7-31" value="" style="line;strokeWidth=2;direction=south;html=1;" vertex="1" parent="1">
          <mxGeometry x="264" y="280" width="10" height="160" as="geometry" />
        </mxCell>
        <mxCell id="s8EIIu6BeSxh9JgCokm7-32" value="" style="line;strokeWidth=2;direction=south;html=1;" vertex="1" parent="1">
          <mxGeometry x="430" y="280" width="10" height="160" as="geometry" />
        </mxCell>
        <mxCell id="s8EIIu6BeSxh9JgCokm7-33" value="" style="line;strokeWidth=2;direction=south;html=1;" vertex="1" parent="1">
          <mxGeometry x="625" y="280" width="10" height="160" as="geometry" />
        </mxCell>
        <mxCell id="s8EIIu6BeSxh9JgCokm7-34" value="" style="line;strokeWidth=2;direction=south;html=1;" vertex="1" parent="1">
          <mxGeometry x="785" y="280" width="10" height="160" as="geometry" />
        </mxCell>
        <mxCell id="s8EIIu6BeSxh9JgCokm7-35" value="Employee" style="swimlane;fontStyle=0;childLayout=stackLayout;horizontal=1;startSize=30;horizontalStack=0;resizeParent=1;resizeParentMax=0;resizeLast=0;collapsible=1;marginBottom=0;whiteSpace=wrap;html=1;" vertex="1" parent="1">
          <mxGeometry x="200" y="440" width="140" height="60" as="geometry" />
        </mxCell>
        <mxCell id="s8EIIu6BeSxh9JgCokm7-39" value="Physician" style="swimlane;fontStyle=0;childLayout=stackLayout;horizontal=1;startSize=30;horizontalStack=0;resizeParent=1;resizeParentMax=0;resizeLast=0;collapsible=1;marginBottom=0;whiteSpace=wrap;html=1;" vertex="1" parent="1">
          <mxGeometry x="365" y="440" width="140" height="60" as="geometry" />
        </mxCell>
        <mxCell id="s8EIIu6BeSxh9JgCokm7-43" value="Patient" style="swimlane;fontStyle=0;childLayout=stackLayout;horizontal=1;startSize=30;horizontalStack=0;resizeParent=1;resizeParentMax=0;resizeLast=0;collapsible=1;marginBottom=0;whiteSpace=wrap;html=1;" vertex="1" parent="1">
          <mxGeometry x="565" y="440" width="140" height="90" as="geometry" />
        </mxCell>
        <mxCell id="s8EIIu6BeSxh9JgCokm7-44" value="Date of Admission" style="text;strokeColor=none;fillColor=none;align=left;verticalAlign=middle;spacingLeft=4;spacingRight=4;overflow=hidden;points=[[0,0.5],[1,0.5]];portConstraint=eastwest;rotatable=0;whiteSpace=wrap;html=1;" vertex="1" parent="s8EIIu6BeSxh9JgCokm7-43">
          <mxGeometry y="30" width="140" height="30" as="geometry" />
        </mxCell>
        <mxCell id="s8EIIu6BeSxh9JgCokm7-45" value="Comment" style="text;strokeColor=none;fillColor=none;align=left;verticalAlign=middle;spacingLeft=4;spacingRight=4;overflow=hidden;points=[[0,0.5],[1,0.5]];portConstraint=eastwest;rotatable=0;whiteSpace=wrap;html=1;" vertex="1" parent="s8EIIu6BeSxh9JgCokm7-43">
          <mxGeometry y="60" width="140" height="30" as="geometry" />
        </mxCell>
        <mxCell id="s8EIIu6BeSxh9JgCokm7-47" value="Volunteer" style="swimlane;fontStyle=0;childLayout=stackLayout;horizontal=1;startSize=30;horizontalStack=0;resizeParent=1;resizeParentMax=0;resizeLast=0;collapsible=1;marginBottom=0;whiteSpace=wrap;html=1;" vertex="1" parent="1">
          <mxGeometry x="720" y="440" width="140" height="60" as="geometry" />
        </mxCell>
        <mxCell id="s8EIIu6BeSxh9JgCokm7-51" value="" style="triangle;whiteSpace=wrap;html=1;rotation=-90;" vertex="1" parent="1">
          <mxGeometry x="259" y="500" width="20" height="20" as="geometry" />
        </mxCell>
        <mxCell id="s8EIIu6BeSxh9JgCokm7-52" value="" style="endArrow=none;html=1;rounded=0;" edge="1" parent="1">
          <mxGeometry relative="1" as="geometry">
            <mxPoint x="269.5" y="520" as="sourcePoint" />
            <mxPoint x="270" y="580" as="targetPoint" />
          </mxGeometry>
        </mxCell>
        <mxCell id="s8EIIu6BeSxh9JgCokm7-53" value="" style="resizable=0;html=1;whiteSpace=wrap;align=right;verticalAlign=bottom;" connectable="0" vertex="1" parent="s8EIIu6BeSxh9JgCokm7-52">
          <mxGeometry x="1" relative="1" as="geometry" />
        </mxCell>
        <mxCell id="s8EIIu6BeSxh9JgCokm7-54" value="" style="line;strokeWidth=2;html=1;" vertex="1" parent="1">
          <mxGeometry x="210" y="576" width="120" height="10" as="geometry" />
        </mxCell>
        <mxCell id="s8EIIu6BeSxh9JgCokm7-61" value="" style="line;strokeWidth=2;direction=south;html=1;" vertex="1" parent="1">
          <mxGeometry x="205" y="580" width="10" height="60" as="geometry" />
        </mxCell>
        <mxCell id="s8EIIu6BeSxh9JgCokm7-62" value="" style="line;strokeWidth=2;direction=south;html=1;" vertex="1" parent="1">
          <mxGeometry x="325" y="580" width="10" height="60" as="geometry" />
        </mxCell>
        <mxCell id="s8EIIu6BeSxh9JgCokm7-63" value="Technician" style="swimlane;fontStyle=0;childLayout=stackLayout;horizontal=1;startSize=30;horizontalStack=0;resizeParent=1;resizeParentMax=0;resizeLast=0;collapsible=1;marginBottom=0;whiteSpace=wrap;html=1;" vertex="1" parent="1">
          <mxGeometry x="130" y="640" width="140" height="60" as="geometry" />
        </mxCell>
        <mxCell id="s8EIIu6BeSxh9JgCokm7-67" value="Nurse" style="swimlane;fontStyle=0;childLayout=stackLayout;horizontal=1;startSize=30;horizontalStack=0;resizeParent=1;resizeParentMax=0;resizeLast=0;collapsible=1;marginBottom=0;whiteSpace=wrap;html=1;" vertex="1" parent="1">
          <mxGeometry x="290" y="640" width="140" height="60" as="geometry" />
        </mxCell>
        <mxCell id="s8EIIu6BeSxh9JgCokm7-68" value="Certificate" style="text;strokeColor=none;fillColor=none;align=left;verticalAlign=middle;spacingLeft=4;spacingRight=4;overflow=hidden;points=[[0,0.5],[1,0.5]];portConstraint=eastwest;rotatable=0;whiteSpace=wrap;html=1;" vertex="1" parent="s8EIIu6BeSxh9JgCokm7-67">
          <mxGeometry y="30" width="140" height="30" as="geometry" />
        </mxCell>
        <mxCell id="s8EIIu6BeSxh9JgCokm7-71" value="" style="line;strokeWidth=2;direction=south;html=1;" vertex="1" parent="1">
          <mxGeometry x="205" y="700" width="10" height="60" as="geometry" />
        </mxCell>
        <mxCell id="s8EIIu6BeSxh9JgCokm7-72" value="Laboratory" style="swimlane;fontStyle=0;childLayout=stackLayout;horizontal=1;startSize=30;horizontalStack=0;resizeParent=1;resizeParentMax=0;resizeLast=0;collapsible=1;marginBottom=0;whiteSpace=wrap;html=1;" vertex="1" parent="1">
          <mxGeometry x="139" y="760" width="140" height="120" as="geometry" />
        </mxCell>
        <mxCell id="s8EIIu6BeSxh9JgCokm7-73" value="LabCode" style="text;strokeColor=none;fillColor=none;align=left;verticalAlign=middle;spacingLeft=4;spacingRight=4;overflow=hidden;points=[[0,0.5],[1,0.5]];portConstraint=eastwest;rotatable=0;whiteSpace=wrap;html=1;" vertex="1" parent="s8EIIu6BeSxh9JgCokm7-72">
          <mxGeometry y="30" width="140" height="30" as="geometry" />
        </mxCell>
        <mxCell id="s8EIIu6BeSxh9JgCokm7-74" value="Name" style="text;strokeColor=none;fillColor=none;align=left;verticalAlign=middle;spacingLeft=4;spacingRight=4;overflow=hidden;points=[[0,0.5],[1,0.5]];portConstraint=eastwest;rotatable=0;whiteSpace=wrap;html=1;" vertex="1" parent="s8EIIu6BeSxh9JgCokm7-72">
          <mxGeometry y="60" width="140" height="30" as="geometry" />
        </mxCell>
        <mxCell id="s8EIIu6BeSxh9JgCokm7-75" value="Location" style="text;strokeColor=none;fillColor=none;align=left;verticalAlign=middle;spacingLeft=4;spacingRight=4;overflow=hidden;points=[[0,0.5],[1,0.5]];portConstraint=eastwest;rotatable=0;whiteSpace=wrap;html=1;" vertex="1" parent="s8EIIu6BeSxh9JgCokm7-72">
          <mxGeometry y="90" width="140" height="30" as="geometry" />
        </mxCell>
        <mxCell id="s8EIIu6BeSxh9JgCokm7-76" value="Care-Center" style="swimlane;fontStyle=0;childLayout=stackLayout;horizontal=1;startSize=30;horizontalStack=0;resizeParent=1;resizeParentMax=0;resizeLast=0;collapsible=1;marginBottom=0;whiteSpace=wrap;html=1;" vertex="1" parent="1">
          <mxGeometry x="310" y="760" width="140" height="90" as="geometry" />
        </mxCell>
        <mxCell id="s8EIIu6BeSxh9JgCokm7-77" value="Name" style="text;strokeColor=none;fillColor=none;align=left;verticalAlign=middle;spacingLeft=4;spacingRight=4;overflow=hidden;points=[[0,0.5],[1,0.5]];portConstraint=eastwest;rotatable=0;whiteSpace=wrap;html=1;" vertex="1" parent="s8EIIu6BeSxh9JgCokm7-76">
          <mxGeometry y="30" width="140" height="30" as="geometry" />
        </mxCell>
        <mxCell id="s8EIIu6BeSxh9JgCokm7-78" value="Location" style="text;strokeColor=none;fillColor=none;align=left;verticalAlign=middle;spacingLeft=4;spacingRight=4;overflow=hidden;points=[[0,0.5],[1,0.5]];portConstraint=eastwest;rotatable=0;whiteSpace=wrap;html=1;" vertex="1" parent="s8EIIu6BeSxh9JgCokm7-76">
          <mxGeometry y="60" width="140" height="30" as="geometry" />
        </mxCell>
        <mxCell id="s8EIIu6BeSxh9JgCokm7-81" value="" style="line;strokeWidth=2;direction=south;html=1;" vertex="1" parent="1">
          <mxGeometry x="371" y="700" width="10" height="60" as="geometry" />
        </mxCell>
        <mxCell id="s8EIIu6BeSxh9JgCokm7-82" value="Resident" style="swimlane;fontStyle=0;childLayout=stackLayout;horizontal=1;startSize=30;horizontalStack=0;resizeParent=1;resizeParentMax=0;resizeLast=0;collapsible=1;marginBottom=0;whiteSpace=wrap;html=1;" vertex="1" parent="1">
          <mxGeometry x="560" y="600" width="140" height="60" as="geometry" />
        </mxCell>
        <mxCell id="s8EIIu6BeSxh9JgCokm7-86" value="" style="line;strokeWidth=2;direction=south;html=1;" vertex="1" parent="1">
          <mxGeometry x="625" y="550" width="10" height="50" as="geometry" />
        </mxCell>
        <mxCell id="s8EIIu6BeSxh9JgCokm7-87" value="Bed" style="swimlane;fontStyle=0;childLayout=stackLayout;horizontal=1;startSize=30;horizontalStack=0;resizeParent=1;resizeParentMax=0;resizeLast=0;collapsible=1;marginBottom=0;whiteSpace=wrap;html=1;" vertex="1" parent="1">
          <mxGeometry x="560" y="730" width="140" height="120" as="geometry" />
        </mxCell>
        <mxCell id="s8EIIu6BeSxh9JgCokm7-88" value="BedID" style="text;strokeColor=none;fillColor=none;align=left;verticalAlign=middle;spacingLeft=4;spacingRight=4;overflow=hidden;points=[[0,0.5],[1,0.5]];portConstraint=eastwest;rotatable=0;whiteSpace=wrap;html=1;" vertex="1" parent="s8EIIu6BeSxh9JgCokm7-87">
          <mxGeometry y="30" width="140" height="30" as="geometry" />
        </mxCell>
        <mxCell id="s8EIIu6BeSxh9JgCokm7-89" value="Bed no" style="text;strokeColor=none;fillColor=none;align=left;verticalAlign=middle;spacingLeft=4;spacingRight=4;overflow=hidden;points=[[0,0.5],[1,0.5]];portConstraint=eastwest;rotatable=0;whiteSpace=wrap;html=1;" vertex="1" parent="s8EIIu6BeSxh9JgCokm7-87">
          <mxGeometry y="60" width="140" height="30" as="geometry" />
        </mxCell>
        <mxCell id="s8EIIu6BeSxh9JgCokm7-90" value="Room no" style="text;strokeColor=none;fillColor=none;align=left;verticalAlign=middle;spacingLeft=4;spacingRight=4;overflow=hidden;points=[[0,0.5],[1,0.5]];portConstraint=eastwest;rotatable=0;whiteSpace=wrap;html=1;" vertex="1" parent="s8EIIu6BeSxh9JgCokm7-87">
          <mxGeometry y="90" width="140" height="30" as="geometry" />
        </mxCell>
        <mxCell id="s8EIIu6BeSxh9JgCokm7-92" value="" style="line;strokeWidth=2;direction=south;html=1;" vertex="1" parent="1">
          <mxGeometry x="625" y="660" width="10" height="70" as="geometry" />
        </mxCell>
        <mxCell id="s8EIIu6BeSxh9JgCokm7-94" value="1 -- *" style="text;html=1;align=center;verticalAlign=middle;resizable=0;points=[];autosize=1;strokeColor=none;fillColor=none;" vertex="1" parent="1">
          <mxGeometry x="368" y="695" width="50" height="30" as="geometry" />
        </mxCell>
        <mxCell id="s8EIIu6BeSxh9JgCokm7-95" value="1 -- 1" style="text;html=1;align=center;verticalAlign=middle;resizable=0;points=[];autosize=1;strokeColor=none;fillColor=none;" vertex="1" parent="1">
          <mxGeometry x="368" y="740" width="50" height="30" as="geometry" />
        </mxCell>
        <mxCell id="s8EIIu6BeSxh9JgCokm7-96" value="1 -- 1" style="text;html=1;align=center;verticalAlign=middle;resizable=0;points=[];autosize=1;strokeColor=none;fillColor=none;" vertex="1" parent="1">
          <mxGeometry x="625" y="707" width="50" height="30" as="geometry" />
        </mxCell>
        <mxCell id="s8EIIu6BeSxh9JgCokm7-97" value="1 -- *" style="text;html=1;align=center;verticalAlign=middle;resizable=0;points=[];autosize=1;strokeColor=none;fillColor=none;" vertex="1" parent="1">
          <mxGeometry x="201" y="694" width="50" height="30" as="geometry" />
        </mxCell>
        <mxCell id="s8EIIu6BeSxh9JgCokm7-98" value="1 -- *" style="text;html=1;align=center;verticalAlign=middle;resizable=0;points=[];autosize=1;strokeColor=none;fillColor=none;" vertex="1" parent="1">
          <mxGeometry x="201" y="737" width="50" height="30" as="geometry" />
        </mxCell>
        <mxCell id="s8EIIu6BeSxh9JgCokm7-99" value="1 -- *" style="text;html=1;align=center;verticalAlign=middle;resizable=0;points=[];autosize=1;strokeColor=none;fillColor=none;" vertex="1" parent="1">
          <mxGeometry x="521" y="781" width="50" height="30" as="geometry" />
        </mxCell>
        <mxCell id="s8EIIu6BeSxh9JgCokm7-100" value="" style="line;strokeWidth=2;html=1;" vertex="1" parent="1">
          <mxGeometry x="450" y="800" width="110" height="10" as="geometry" />
        </mxCell>
        <mxCell id="s8EIIu6BeSxh9JgCokm7-101" value="0 -- *" style="text;html=1;align=center;verticalAlign=middle;resizable=0;points=[];autosize=1;strokeColor=none;fillColor=none;" vertex="1" parent="1">
          <mxGeometry x="440" y="806" width="50" height="30" as="geometry" />
        </mxCell>
        <mxCell id="s8EIIu6BeSxh9JgCokm7-102" value="0 -- 1" style="text;html=1;align=center;verticalAlign=middle;resizable=0;points=[];autosize=1;strokeColor=none;fillColor=none;" vertex="1" parent="1">
          <mxGeometry x="625" y="655" width="50" height="30" as="geometry" />
        </mxCell>
        <mxCell id="s8EIIu6BeSxh9JgCokm7-104" value="" style="triangle;whiteSpace=wrap;html=1;rotation=-90;" vertex="1" parent="1">
          <mxGeometry x="620" y="530" width="20" height="20" as="geometry" />
        </mxCell>
        <mxCell id="s8EIIu6BeSxh9JgCokm7-105" value="" style="triangle;whiteSpace=wrap;html=1;rotation=-90;" vertex="1" parent="1">
          <mxGeometry x="555" y="245" width="20" height="10" as="geometry" />
        </mxCell>
        <mxCell id="s8EIIu6BeSxh9JgCokm7-107" value="is a" style="text;html=1;align=center;verticalAlign=middle;resizable=0;points=[];autosize=1;strokeColor=none;fillColor=none;" vertex="1" parent="1">
          <mxGeometry x="572" y="235" width="40" height="30" as="geometry" />
        </mxCell>
        <mxCell id="s8EIIu6BeSxh9JgCokm7-108" value="" style="triangle;whiteSpace=wrap;html=1;rotation=-90;" vertex="1" parent="1">
          <mxGeometry x="279" y="545" width="20" height="10" as="geometry" />
        </mxCell>
        <mxCell id="s8EIIu6BeSxh9JgCokm7-109" value="is a" style="text;html=1;align=center;verticalAlign=middle;resizable=0;points=[];autosize=1;strokeColor=none;fillColor=none;" vertex="1" parent="1">
          <mxGeometry x="297" y="537" width="40" height="30" as="geometry" />
        </mxCell>
        <mxCell id="s8EIIu6BeSxh9JgCokm7-111" value="" style="triangle;whiteSpace=wrap;html=1;rotation=-90;" vertex="1" parent="1">
          <mxGeometry x="640" y="571" width="20" height="10" as="geometry" />
        </mxCell>
        <mxCell id="s8EIIu6BeSxh9JgCokm7-112" value="is a" style="text;html=1;align=center;verticalAlign=middle;resizable=0;points=[];autosize=1;strokeColor=none;fillColor=none;" vertex="1" parent="1">
          <mxGeometry x="656" y="564" width="40" height="30" as="geometry" />
        </mxCell>
        <mxCell id="s8EIIu6BeSxh9JgCokm7-113" value="" style="line;strokeWidth=2;html=1;" vertex="1" parent="1">
          <mxGeometry x="505" y="470" width="60" height="10" as="geometry" />
        </mxCell>
        <mxCell id="s8EIIu6BeSxh9JgCokm7-114" value="1 -- 1" style="text;html=1;align=center;verticalAlign=middle;resizable=0;points=[];autosize=1;strokeColor=none;fillColor=none;" vertex="1" parent="1">
          <mxGeometry x="495" y="469" width="50" height="30" as="geometry" />
        </mxCell>
        <mxCell id="s8EIIu6BeSxh9JgCokm7-115" value="1 -- 1" style="text;html=1;align=center;verticalAlign=middle;resizable=0;points=[];autosize=1;strokeColor=none;fillColor=none;" vertex="1" parent="1">
          <mxGeometry x="524" y="454" width="50" height="30" as="geometry" />
        </mxCell>
        <mxCell id="s8EIIu6BeSxh9JgCokm7-118" value="" style="triangle;whiteSpace=wrap;html=1;rotation=90;" vertex="1" parent="1">
          <mxGeometry x="644" y="690" width="20" height="10" as="geometry" />
        </mxCell>
        <mxCell id="s8EIIu6BeSxh9JgCokm7-119" value="is assigned to" style="text;html=1;align=center;verticalAlign=middle;resizable=0;points=[];autosize=1;strokeColor=none;fillColor=none;" vertex="1" parent="1">
          <mxGeometry x="658" y="680" width="100" height="30" as="geometry" />
        </mxCell>
        <mxCell id="s8EIIu6BeSxh9JgCokm7-120" value="" style="triangle;whiteSpace=wrap;html=1;rotation=0;" vertex="1" parent="1">
          <mxGeometry x="522" y="491" width="20" height="10" as="geometry" />
        </mxCell>
        <mxCell id="s8EIIu6BeSxh9JgCokm7-121" value="is responsible for" style="text;html=1;align=center;verticalAlign=middle;resizable=0;points=[];autosize=1;strokeColor=none;fillColor=none;" vertex="1" parent="1">
          <mxGeometry x="462" y="498" width="110" height="30" as="geometry" />
        </mxCell>
        <mxCell id="s8EIIu6BeSxh9JgCokm7-122" value="" style="triangle;whiteSpace=wrap;html=1;rotation=90;" vertex="1" parent="1">
          <mxGeometry x="386" y="728" width="20" height="10" as="geometry" />
        </mxCell>
        <mxCell id="s8EIIu6BeSxh9JgCokm7-123" value="is assigned to" style="text;html=1;align=center;verticalAlign=middle;resizable=0;points=[];autosize=1;strokeColor=none;fillColor=none;" vertex="1" parent="1">
          <mxGeometry x="395" y="720" width="100" height="30" as="geometry" />
        </mxCell>
        <mxCell id="s8EIIu6BeSxh9JgCokm7-124" value="" style="triangle;whiteSpace=wrap;html=1;rotation=90;" vertex="1" parent="1">
          <mxGeometry x="210" y="725" width="20" height="10" as="geometry" />
        </mxCell>
        <mxCell id="s8EIIu6BeSxh9JgCokm7-125" value="is assigned to" style="text;html=1;align=center;verticalAlign=middle;resizable=0;points=[];autosize=1;strokeColor=none;fillColor=none;" vertex="1" parent="1">
          <mxGeometry x="220" y="715" width="100" height="30" as="geometry" />
        </mxCell>
        <mxCell id="s8EIIu6BeSxh9JgCokm7-127" value="" style="triangle;whiteSpace=wrap;html=1;rotation=-180;" vertex="1" parent="1">
          <mxGeometry x="485" y="784" width="20" height="10" as="geometry" />
        </mxCell>
        <mxCell id="s8EIIu6BeSxh9JgCokm7-128" value="is assigned to" style="text;html=1;align=center;verticalAlign=middle;resizable=0;points=[];autosize=1;strokeColor=none;fillColor=none;" vertex="1" parent="1">
          <mxGeometry x="451" y="760" width="100" height="30" as="geometry" />
        </mxCell>
      </root>
    </mxGraphModel>
  </diagram>
</mxfile>
